<?xml version="1.0" standalone="no"?>
<!DOCTYPE svg PUBLIC "-//W3C//DTD SVG 20010904//EN"
 "http://www.w3.org/TR/2001/REC-SVG-20010904/DTD/svg10.dtd">
<svg version="1.0" xmlns="http://www.w3.org/2000/svg"
 width="688.000000pt" height="688.000000pt" viewBox="0 0 688.000000 688.000000"
 preserveAspectRatio="xMidYMid meet">
<metadata>
Created by potrace 1.14, written by Peter Selinger 2001-2017
</metadata>
<g transform="translate(0.000000,688.000000) scale(0.100000,-0.100000)"
fill="#000000" stroke="none">
<path d="M3178 6875 c-2 -2 -52 -6 -113 -9 -60 -3 -128 -8 -150 -11 -22 -2
-67 -7 -100 -10 -69 -6 -135 -14 -185 -21 -19 -3 -48 -7 -65 -9 -16 -3 -48 -7
-70 -10 -22 -4 -51 -8 -65 -10 -55 -9 -133 -22 -170 -30 -14 -3 -41 -8 -60
-11 -19 -3 -42 -7 -50 -10 -8 -3 -26 -8 -40 -10 -44 -8 -163 -35 -220 -51 -30
-8 -62 -17 -70 -19 -8 -2 -60 -17 -115 -34 -55 -17 -109 -32 -120 -35 -11 -3
-29 -9 -40 -14 -11 -5 -54 -21 -95 -36 -225 -83 -402 -182 -492 -277 -63 -66
-73 -99 -59 -196 14 -95 17 -117 31 -217 6 -44 13 -93 16 -110 3 -16 7 -43 8
-60 2 -16 6 -43 9 -60 3 -16 8 -52 12 -80 3 -27 13 -97 21 -155 9 -58 18 -118
20 -135 2 -16 6 -46 9 -65 3 -19 7 -48 9 -65 3 -16 7 -43 10 -60 3 -16 8 -52
11 -80 4 -27 8 -61 10 -75 10 -82 16 -118 20 -140 3 -14 7 -41 9 -60 2 -19 7
-57 12 -85 4 -27 8 -59 10 -70 1 -11 3 -20 4 -20 1 0 3 -16 5 -35 3 -19 6 -51
9 -70 2 -19 7 -48 10 -65 5 -29 11 -77 22 -175 2 -25 7 -52 10 -60 3 -8 8 -33
10 -55 7 -66 13 -109 18 -135 2 -14 7 -43 10 -65 5 -42 12 -89 22 -152 3 -21
7 -54 10 -73 2 -19 6 -46 9 -60 2 -14 7 -47 11 -75 3 -27 8 -63 10 -80 3 -16
7 -46 10 -65 2 -19 6 -46 9 -60 2 -14 7 -49 10 -79 4 -30 9 -63 11 -75 2 -12
7 -41 10 -66 3 -25 7 -56 10 -70 2 -14 6 -42 9 -62 5 -34 11 -84 20 -145 4
-28 15 -97 22 -138 2 -16 6 -46 8 -65 4 -40 14 -105 20 -135 2 -11 7 -46 10
-78 4 -32 8 -68 11 -80 2 -12 6 -35 9 -52 5 -36 35 -246 41 -295 3 -19 7 -46
9 -60 3 -14 7 -47 11 -75 3 -27 8 -61 10 -75 6 -27 7 -32 19 -135 9 -72 11
-83 15 -87 1 -2 3 -19 5 -38 2 -19 6 -48 9 -65 2 -16 8 -54 11 -84 4 -29 8
-63 11 -75 2 -11 6 -37 8 -56 3 -19 7 -51 10 -70 15 -103 24 -180 25 -220 9
-263 295 -559 691 -717 70 -28 219 -83 225 -83 3 0 29 -6 59 -15 29 -9 63 -18
75 -20 11 -3 31 -8 44 -11 12 -3 32 -7 44 -9 11 -2 29 -6 40 -9 25 -7 78 -17
183 -31 25 -4 56 -8 69 -10 162 -26 703 -26 840 0 9 1 39 6 66 9 83 11 130 19
185 31 14 3 34 7 45 9 54 11 197 50 258 71 37 13 71 25 75 26 32 8 215 86 262
112 82 45 125 72 128 79 2 4 8 8 14 8 17 0 108 72 184 145 121 117 194 251
209 382 2 21 7 70 10 108 7 78 13 128 21 165 3 14 8 47 10 75 2 27 7 66 9 85
3 19 7 49 9 65 11 94 18 148 21 164 2 10 6 42 10 72 3 30 9 68 11 84 3 17 7
46 9 65 2 19 11 89 19 155 9 66 18 138 21 160 2 22 7 50 9 62 3 12 7 49 11 82
3 33 7 68 9 78 5 27 15 102 21 153 7 59 13 110 25 195 13 95 19 142 25 195 3
25 10 81 16 125 6 44 13 91 15 105 1 14 5 43 8 65 3 22 8 63 11 90 3 28 8 61
10 75 3 14 7 45 10 70 3 25 8 56 10 70 2 14 7 52 10 85 4 33 8 67 10 75 2 8 7
44 10 80 4 36 8 72 10 80 1 8 6 40 10 70 3 30 8 66 10 80 3 14 7 48 10 75 3
28 8 63 11 79 2 15 7 51 10 80 8 76 12 108 18 136 2 14 7 50 11 81 3 31 8 67
10 79 2 12 7 48 10 81 4 33 8 68 10 78 3 16 6 39 19 146 12 94 18 140 22 159
2 11 6 45 9 76 3 31 7 65 9 76 2 12 7 45 11 75 3 30 8 65 10 79 15 106 22 157
30 230 2 25 7 61 10 80 3 19 7 51 9 70 3 19 7 49 10 65 2 17 7 55 11 86 3 31
7 66 10 77 2 12 6 45 9 74 4 29 8 64 11 78 17 87 17 148 -1 186 -16 35 -88
115 -139 154 -159 121 -547 283 -870 362 -22 5 -47 11 -55 14 -46 11 -99 24
-125 28 -16 3 -45 10 -64 16 -19 5 -37 8 -39 5 -3 -2 -12 0 -21 4 -9 5 -34 11
-56 14 -22 4 -65 11 -95 17 -30 6 -73 13 -95 15 -22 3 -49 7 -60 9 -23 4 -131
19 -155 21 -8 1 -40 5 -70 8 -60 8 -144 16 -230 23 -67 5 -727 14 -732 9z"/>
</g>
</svg>
